<mxfile host="Electron" modified="2024-06-11T01:45:48.531Z" agent="Mozilla/5.0 (Windows NT 10.0; Win64; x64) AppleWebKit/537.36 (KHTML, like Gecko) draw.io/24.5.1 Chrome/124.0.6367.207 Electron/30.0.6 Safari/537.36" etag="zd-ZlzdkuAh3Jk2qCNDs" version="24.5.1" type="device">
  <diagram name="Page-1" id="7lKrpwa7xBaLdOCbZkde">
    <mxGraphModel dx="3009" dy="2384" grid="1" gridSize="10" guides="1" tooltips="1" connect="1" arrows="0" fold="1" page="1" pageScale="1" pageWidth="850" pageHeight="1100" math="0" shadow="0">
      <root>
        <mxCell id="0" />
        <mxCell id="1" parent="0" />
        <mxCell id="xHol1U0a_8AFffTDcJwT-8" value="" style="rounded=1;arcSize=10;dashed=1;strokeColor=#F59D56;fillColor=none;gradientColor=none;dashPattern=8 4;strokeWidth=2;" parent="1" vertex="1">
          <mxGeometry x="-260" y="480" width="1190" height="310" as="geometry" />
        </mxCell>
        <mxCell id="xHol1U0a_8AFffTDcJwT-9" value="" style="rounded=1;arcSize=10;dashed=0;fillColor=none;gradientColor=none;strokeWidth=2;" parent="1" vertex="1">
          <mxGeometry x="-230" y="60" width="1120" height="700" as="geometry" />
        </mxCell>
        <mxCell id="xHol1U0a_8AFffTDcJwT-10" value="" style="dashed=0;html=1;shape=mxgraph.aws3.virtual_private_cloud;fillColor=#F58536;gradientColor=none;dashed=0;" parent="1" vertex="1">
          <mxGeometry x="-160" y="40" width="52" height="36" as="geometry" />
        </mxCell>
        <mxCell id="xHol1U0a_8AFffTDcJwT-14" value="Public subnet 1" style="points=[[0,0],[0.25,0],[0.5,0],[0.75,0],[1,0],[1,0.25],[1,0.5],[1,0.75],[1,1],[0.75,1],[0.5,1],[0.25,1],[0,1],[0,0.75],[0,0.5],[0,0.25]];outlineConnect=0;gradientColor=none;html=1;whiteSpace=wrap;fontSize=12;fontStyle=0;container=1;pointerEvents=0;collapsible=0;recursiveResize=0;shape=mxgraph.aws4.group;grIcon=mxgraph.aws4.group_security_group;grStroke=0;strokeColor=#7AA116;fillColor=#F2F6E8;verticalAlign=top;align=left;spacingLeft=30;fontColor=#248814;dashed=0;" parent="1" vertex="1">
          <mxGeometry x="700" y="110" width="160" height="200" as="geometry" />
        </mxCell>
        <mxCell id="xHol1U0a_8AFffTDcJwT-15" value="Public subnet 2" style="points=[[0,0],[0.25,0],[0.5,0],[0.75,0],[1,0],[1,0.25],[1,0.5],[1,0.75],[1,1],[0.75,1],[0.5,1],[0.25,1],[0,1],[0,0.75],[0,0.5],[0,0.25]];outlineConnect=0;gradientColor=none;html=1;whiteSpace=wrap;fontSize=12;fontStyle=0;container=1;pointerEvents=0;collapsible=0;recursiveResize=0;shape=mxgraph.aws4.group;grIcon=mxgraph.aws4.group_security_group;grStroke=0;strokeColor=#7AA116;fillColor=#F2F6E8;verticalAlign=top;align=left;spacingLeft=30;fontColor=#248814;dashed=0;" parent="1" vertex="1">
          <mxGeometry x="700" y="530" width="160" height="200" as="geometry" />
        </mxCell>
        <mxCell id="xHol1U0a_8AFffTDcJwT-32" value="" style="outlineConnect=0;dashed=0;verticalLabelPosition=bottom;verticalAlign=top;align=center;html=1;shape=mxgraph.aws3.vpc_nat_gateway;fillColor=#F58534;gradientColor=none;" parent="xHol1U0a_8AFffTDcJwT-15" vertex="1">
          <mxGeometry x="10" y="30" width="40" height="40" as="geometry" />
        </mxCell>
        <mxCell id="xHol1U0a_8AFffTDcJwT-109" value="Bastion" style="text;html=1;align=center;verticalAlign=middle;resizable=0;points=[];autosize=1;strokeColor=none;fillColor=none;" parent="xHol1U0a_8AFffTDcJwT-15" vertex="1">
          <mxGeometry x="90" y="170" width="60" height="30" as="geometry" />
        </mxCell>
        <mxCell id="xHol1U0a_8AFffTDcJwT-113" value="NAT&lt;div&gt;Gateway&lt;/div&gt;" style="text;html=1;align=center;verticalAlign=middle;resizable=0;points=[];autosize=1;strokeColor=none;fillColor=none;" parent="xHol1U0a_8AFffTDcJwT-15" vertex="1">
          <mxGeometry x="-5" y="70" width="70" height="40" as="geometry" />
        </mxCell>
        <mxCell id="xHol1U0a_8AFffTDcJwT-16" value="Private subnet 1" style="points=[[0,0],[0.25,0],[0.5,0],[0.75,0],[1,0],[1,0.25],[1,0.5],[1,0.75],[1,1],[0.75,1],[0.5,1],[0.25,1],[0,1],[0,0.75],[0,0.5],[0,0.25]];outlineConnect=0;gradientColor=none;html=1;whiteSpace=wrap;fontSize=12;fontStyle=0;container=1;pointerEvents=0;collapsible=0;recursiveResize=0;shape=mxgraph.aws4.group;grIcon=mxgraph.aws4.group_security_group;grStroke=0;strokeColor=#00A4A6;fillColor=#E6F6F7;verticalAlign=top;align=left;spacingLeft=30;fontColor=#147EBA;dashed=0;" parent="1" vertex="1">
          <mxGeometry x="530" y="110" width="150" height="200" as="geometry" />
        </mxCell>
        <mxCell id="xHol1U0a_8AFffTDcJwT-17" value="Private subnet 3" style="points=[[0,0],[0.25,0],[0.5,0],[0.75,0],[1,0],[1,0.25],[1,0.5],[1,0.75],[1,1],[0.75,1],[0.5,1],[0.25,1],[0,1],[0,0.75],[0,0.5],[0,0.25]];outlineConnect=0;gradientColor=none;html=1;whiteSpace=wrap;fontSize=12;fontStyle=0;container=1;pointerEvents=0;collapsible=0;recursiveResize=0;shape=mxgraph.aws4.group;grIcon=mxgraph.aws4.group_security_group;grStroke=0;strokeColor=#00A4A6;fillColor=#E6F6F7;verticalAlign=top;align=left;spacingLeft=30;fontColor=#147EBA;dashed=0;" parent="1" vertex="1">
          <mxGeometry x="340" y="110" width="170" height="200" as="geometry" />
        </mxCell>
        <mxCell id="xHol1U0a_8AFffTDcJwT-18" value="Private subnet 7" style="points=[[0,0],[0.25,0],[0.5,0],[0.75,0],[1,0],[1,0.25],[1,0.5],[1,0.75],[1,1],[0.75,1],[0.5,1],[0.25,1],[0,1],[0,0.75],[0,0.5],[0,0.25]];outlineConnect=0;gradientColor=none;html=1;whiteSpace=wrap;fontSize=12;fontStyle=0;container=1;pointerEvents=0;collapsible=0;recursiveResize=0;shape=mxgraph.aws4.group;grIcon=mxgraph.aws4.group_security_group;grStroke=0;strokeColor=#00A4A6;fillColor=#E6F6F7;verticalAlign=top;align=left;spacingLeft=30;fontColor=#147EBA;dashed=0;" parent="1" vertex="1">
          <mxGeometry x="-20" y="110" width="160" height="200" as="geometry" />
        </mxCell>
        <mxCell id="xHol1U0a_8AFffTDcJwT-19" value="Private subnet 5" style="points=[[0,0],[0.25,0],[0.5,0],[0.75,0],[1,0],[1,0.25],[1,0.5],[1,0.75],[1,1],[0.75,1],[0.5,1],[0.25,1],[0,1],[0,0.75],[0,0.5],[0,0.25]];outlineConnect=0;gradientColor=none;html=1;whiteSpace=wrap;fontSize=12;fontStyle=0;container=1;pointerEvents=0;collapsible=0;recursiveResize=0;shape=mxgraph.aws4.group;grIcon=mxgraph.aws4.group_security_group;grStroke=0;strokeColor=#00A4A6;fillColor=#E6F6F7;verticalAlign=top;align=left;spacingLeft=30;fontColor=#147EBA;dashed=0;" parent="1" vertex="1">
          <mxGeometry x="160" y="110" width="160" height="200" as="geometry" />
        </mxCell>
        <mxCell id="xHol1U0a_8AFffTDcJwT-20" value="Private subnet 9" style="points=[[0,0],[0.25,0],[0.5,0],[0.75,0],[1,0],[1,0.25],[1,0.5],[1,0.75],[1,1],[0.75,1],[0.5,1],[0.25,1],[0,1],[0,0.75],[0,0.5],[0,0.25]];outlineConnect=0;gradientColor=none;html=1;whiteSpace=wrap;fontSize=12;fontStyle=0;container=1;pointerEvents=0;collapsible=0;recursiveResize=0;shape=mxgraph.aws4.group;grIcon=mxgraph.aws4.group_security_group;grStroke=0;strokeColor=#00A4A6;fillColor=#E6F6F7;verticalAlign=top;align=left;spacingLeft=30;fontColor=#147EBA;dashed=0;" parent="1" vertex="1">
          <mxGeometry x="-210" y="110" width="170" height="200" as="geometry" />
        </mxCell>
        <mxCell id="xHol1U0a_8AFffTDcJwT-21" value="Private subnet 2" style="points=[[0,0],[0.25,0],[0.5,0],[0.75,0],[1,0],[1,0.25],[1,0.5],[1,0.75],[1,1],[0.75,1],[0.5,1],[0.25,1],[0,1],[0,0.75],[0,0.5],[0,0.25]];outlineConnect=0;gradientColor=none;html=1;whiteSpace=wrap;fontSize=12;fontStyle=0;container=1;pointerEvents=0;collapsible=0;recursiveResize=0;shape=mxgraph.aws4.group;grIcon=mxgraph.aws4.group_security_group;grStroke=0;strokeColor=#00A4A6;fillColor=#E6F6F7;verticalAlign=top;align=left;spacingLeft=30;fontColor=#147EBA;dashed=0;" parent="1" vertex="1">
          <mxGeometry x="530" y="530" width="150" height="190" as="geometry" />
        </mxCell>
        <mxCell id="xHol1U0a_8AFffTDcJwT-22" value="Private subnet 4" style="points=[[0,0],[0.25,0],[0.5,0],[0.75,0],[1,0],[1,0.25],[1,0.5],[1,0.75],[1,1],[0.75,1],[0.5,1],[0.25,1],[0,1],[0,0.75],[0,0.5],[0,0.25]];outlineConnect=0;gradientColor=none;html=1;whiteSpace=wrap;fontSize=12;fontStyle=0;container=1;pointerEvents=0;collapsible=0;recursiveResize=0;shape=mxgraph.aws4.group;grIcon=mxgraph.aws4.group_security_group;grStroke=0;strokeColor=#00A4A6;fillColor=#E6F6F7;verticalAlign=top;align=left;spacingLeft=30;fontColor=#147EBA;dashed=0;" parent="1" vertex="1">
          <mxGeometry x="340" y="530" width="170" height="190" as="geometry" />
        </mxCell>
        <mxCell id="xHol1U0a_8AFffTDcJwT-23" value="Private subnet 6" style="points=[[0,0],[0.25,0],[0.5,0],[0.75,0],[1,0],[1,0.25],[1,0.5],[1,0.75],[1,1],[0.75,1],[0.5,1],[0.25,1],[0,1],[0,0.75],[0,0.5],[0,0.25]];outlineConnect=0;gradientColor=none;html=1;whiteSpace=wrap;fontSize=12;fontStyle=0;container=1;pointerEvents=0;collapsible=0;recursiveResize=0;shape=mxgraph.aws4.group;grIcon=mxgraph.aws4.group_security_group;grStroke=0;strokeColor=#00A4A6;fillColor=#E6F6F7;verticalAlign=top;align=left;spacingLeft=30;fontColor=#147EBA;dashed=0;" parent="1" vertex="1">
          <mxGeometry x="160" y="530" width="160" height="190" as="geometry" />
        </mxCell>
        <mxCell id="xHol1U0a_8AFffTDcJwT-24" value="Private subnet 8" style="points=[[0,0],[0.25,0],[0.5,0],[0.75,0],[1,0],[1,0.25],[1,0.5],[1,0.75],[1,1],[0.75,1],[0.5,1],[0.25,1],[0,1],[0,0.75],[0,0.5],[0,0.25]];outlineConnect=0;gradientColor=none;html=1;whiteSpace=wrap;fontSize=12;fontStyle=0;container=1;pointerEvents=0;collapsible=0;recursiveResize=0;shape=mxgraph.aws4.group;grIcon=mxgraph.aws4.group_security_group;grStroke=0;strokeColor=#00A4A6;fillColor=#E6F6F7;verticalAlign=top;align=left;spacingLeft=30;fontColor=#147EBA;dashed=0;" parent="1" vertex="1">
          <mxGeometry x="-20" y="530" width="160" height="190" as="geometry" />
        </mxCell>
        <mxCell id="xHol1U0a_8AFffTDcJwT-25" value="Private subnet 10" style="points=[[0,0],[0.25,0],[0.5,0],[0.75,0],[1,0],[1,0.25],[1,0.5],[1,0.75],[1,1],[0.75,1],[0.5,1],[0.25,1],[0,1],[0,0.75],[0,0.5],[0,0.25]];outlineConnect=0;gradientColor=none;html=1;whiteSpace=wrap;fontSize=12;fontStyle=0;container=1;pointerEvents=0;collapsible=0;recursiveResize=0;shape=mxgraph.aws4.group;grIcon=mxgraph.aws4.group_security_group;grStroke=0;strokeColor=#00A4A6;fillColor=#E6F6F7;verticalAlign=top;align=left;spacingLeft=30;fontColor=#147EBA;dashed=0;" parent="1" vertex="1">
          <mxGeometry x="-210" y="530" width="170" height="190" as="geometry" />
        </mxCell>
        <mxCell id="xHol1U0a_8AFffTDcJwT-27" value="" style="outlineConnect=0;dashed=0;verticalLabelPosition=bottom;verticalAlign=top;align=center;html=1;shape=mxgraph.aws3.vpc_nat_gateway;fillColor=#F58534;gradientColor=none;" parent="1" vertex="1">
          <mxGeometry x="710" y="150" width="40" height="30" as="geometry" />
        </mxCell>
        <mxCell id="xHol1U0a_8AFffTDcJwT-28" value="" style="image;aspect=fixed;perimeter=ellipsePerimeter;html=1;align=center;shadow=0;dashed=0;spacingTop=3;image=img/lib/active_directory/database_server.svg;" parent="1" vertex="1">
          <mxGeometry x="-190" y="240" width="41" height="50" as="geometry" />
        </mxCell>
        <mxCell id="xHol1U0a_8AFffTDcJwT-29" value="" style="image;aspect=fixed;perimeter=ellipsePerimeter;html=1;align=center;shadow=0;dashed=0;spacingTop=3;image=img/lib/active_directory/database_server.svg;" parent="1" vertex="1">
          <mxGeometry x="-190" y="650" width="41" height="50" as="geometry" />
        </mxCell>
        <mxCell id="xHol1U0a_8AFffTDcJwT-30" value="" style="image;html=1;image=img/lib/clip_art/computers/Server_128x128.png" parent="1" vertex="1">
          <mxGeometry x="790" y="250" width="60" height="50" as="geometry" />
        </mxCell>
        <mxCell id="xHol1U0a_8AFffTDcJwT-31" value="" style="image;html=1;image=img/lib/clip_art/computers/Server_128x128.png" parent="1" vertex="1">
          <mxGeometry x="790" y="660" width="60" height="50" as="geometry" />
        </mxCell>
        <mxCell id="xHol1U0a_8AFffTDcJwT-33" value="" style="outlineConnect=0;dashed=0;verticalLabelPosition=bottom;verticalAlign=top;align=center;html=1;shape=mxgraph.aws3.application_load_balancer;fillColor=#F58534;gradientColor=none;" parent="1" vertex="1">
          <mxGeometry x="790" y="390" width="39" height="40" as="geometry" />
        </mxCell>
        <mxCell id="xHol1U0a_8AFffTDcJwT-34" value="" style="outlineConnect=0;dashed=0;verticalLabelPosition=bottom;verticalAlign=top;align=center;html=1;shape=mxgraph.aws3.internet_gateway;fillColor=#F58534;gradientColor=none;" parent="1" vertex="1">
          <mxGeometry x="870" y="390" width="40" height="40" as="geometry" />
        </mxCell>
        <mxCell id="xHol1U0a_8AFffTDcJwT-35" value="Internet Gateway" style="text;html=1;align=center;verticalAlign=middle;resizable=0;points=[];autosize=1;strokeColor=none;fillColor=none;" parent="1" vertex="1">
          <mxGeometry x="850" y="430" width="110" height="30" as="geometry" />
        </mxCell>
        <mxCell id="xHol1U0a_8AFffTDcJwT-37" value="Application&amp;nbsp;&lt;div&gt;Load Balancer&lt;/div&gt;" style="text;html=1;align=center;verticalAlign=middle;resizable=0;points=[];autosize=1;strokeColor=none;fillColor=none;" parent="1" vertex="1">
          <mxGeometry x="759.5" y="425" width="100" height="40" as="geometry" />
        </mxCell>
        <mxCell id="xHol1U0a_8AFffTDcJwT-38" value="Availability&amp;nbsp;&lt;div&gt;Zone B&lt;/div&gt;" style="text;html=1;align=center;verticalAlign=middle;resizable=0;points=[];autosize=1;strokeColor=none;fillColor=none;" parent="1" vertex="1">
          <mxGeometry x="250" y="760" width="80" height="40" as="geometry" />
        </mxCell>
        <mxCell id="xHol1U0a_8AFffTDcJwT-39" value="Availability&lt;div&gt;Zone A&lt;/div&gt;" style="text;strokeColor=none;align=center;fillColor=none;html=1;verticalAlign=middle;whiteSpace=wrap;rounded=0;" parent="1" vertex="1">
          <mxGeometry x="260" y="20" width="60" height="30" as="geometry" />
        </mxCell>
        <mxCell id="xHol1U0a_8AFffTDcJwT-40" value="NAT&lt;div&gt;Gateway&lt;/div&gt;" style="text;html=1;align=center;verticalAlign=middle;resizable=0;points=[];autosize=1;strokeColor=none;fillColor=none;" parent="1" vertex="1">
          <mxGeometry x="695" y="180" width="70" height="40" as="geometry" />
        </mxCell>
        <mxCell id="xHol1U0a_8AFffTDcJwT-41" value="" style="endArrow=classic;startArrow=classic;html=1;rounded=0;exitX=0.5;exitY=0;exitDx=0;exitDy=0;exitPerimeter=0;" parent="1" source="xHol1U0a_8AFffTDcJwT-33" edge="1">
          <mxGeometry width="50" height="50" relative="1" as="geometry">
            <mxPoint x="290" y="370" as="sourcePoint" />
            <mxPoint x="810" y="310" as="targetPoint" />
          </mxGeometry>
        </mxCell>
        <mxCell id="xHol1U0a_8AFffTDcJwT-42" value="" style="endArrow=classic;startArrow=classic;html=1;rounded=0;entryX=0.535;entryY=0.108;entryDx=0;entryDy=0;entryPerimeter=0;" parent="1" target="xHol1U0a_8AFffTDcJwT-37" edge="1">
          <mxGeometry width="50" height="50" relative="1" as="geometry">
            <mxPoint x="813" y="530" as="sourcePoint" />
            <mxPoint x="340" y="320" as="targetPoint" />
          </mxGeometry>
        </mxCell>
        <mxCell id="xHol1U0a_8AFffTDcJwT-44" value="" style="outlineConnect=0;dashed=0;verticalLabelPosition=bottom;verticalAlign=top;align=center;html=1;shape=mxgraph.aws3.route_53;fillColor=#F58536;gradientColor=none;" parent="1" vertex="1">
          <mxGeometry x="990" y="379.75" width="40" height="50.25" as="geometry" />
        </mxCell>
        <mxCell id="xHol1U0a_8AFffTDcJwT-45" value="Route 53" style="text;html=1;align=center;verticalAlign=middle;resizable=0;points=[];autosize=1;strokeColor=none;fillColor=none;" parent="1" vertex="1">
          <mxGeometry x="975" y="430" width="70" height="30" as="geometry" />
        </mxCell>
        <mxCell id="xHol1U0a_8AFffTDcJwT-46" value="" style="endArrow=classic;startArrow=classic;html=1;rounded=0;entryX=0;entryY=0.5;entryDx=0;entryDy=0;entryPerimeter=0;" parent="1" target="xHol1U0a_8AFffTDcJwT-34" edge="1">
          <mxGeometry width="50" height="50" relative="1" as="geometry">
            <mxPoint x="830" y="410" as="sourcePoint" />
            <mxPoint x="340" y="320" as="targetPoint" />
          </mxGeometry>
        </mxCell>
        <mxCell id="xHol1U0a_8AFffTDcJwT-49" value="" style="endArrow=classic;startArrow=classic;html=1;rounded=0;exitX=1;exitY=0.5;exitDx=0;exitDy=0;exitPerimeter=0;" parent="1" source="xHol1U0a_8AFffTDcJwT-34" edge="1">
          <mxGeometry width="50" height="50" relative="1" as="geometry">
            <mxPoint x="1000" y="290" as="sourcePoint" />
            <mxPoint x="1000" y="410" as="targetPoint" />
          </mxGeometry>
        </mxCell>
        <mxCell id="xHol1U0a_8AFffTDcJwT-108" value="Bastion" style="text;html=1;align=center;verticalAlign=middle;resizable=0;points=[];autosize=1;strokeColor=none;fillColor=none;" parent="1" vertex="1">
          <mxGeometry x="790" y="290" width="60" height="30" as="geometry" />
        </mxCell>
        <mxCell id="xHol1U0a_8AFffTDcJwT-110" value="" style="ellipse;shape=cloud;whiteSpace=wrap;html=1;" parent="1" vertex="1">
          <mxGeometry x="1210" y="372" width="120" height="80" as="geometry" />
        </mxCell>
        <mxCell id="xHol1U0a_8AFffTDcJwT-112" value="" style="endArrow=classic;startArrow=classic;html=1;rounded=0;entryX=0.07;entryY=0.4;entryDx=0;entryDy=0;entryPerimeter=0;exitX=1;exitY=0.5;exitDx=0;exitDy=0;exitPerimeter=0;" parent="1" source="xHol1U0a_8AFffTDcJwT-44" target="xHol1U0a_8AFffTDcJwT-110" edge="1">
          <mxGeometry width="50" height="50" relative="1" as="geometry">
            <mxPoint x="1040" y="550" as="sourcePoint" />
            <mxPoint x="1090" y="500" as="targetPoint" />
          </mxGeometry>
        </mxCell>
        <mxCell id="xHol1U0a_8AFffTDcJwT-114" value="" style="sketch=0;outlineConnect=0;fontColor=#232F3E;gradientColor=none;fillColor=#8C4FFF;strokeColor=none;dashed=0;verticalLabelPosition=bottom;verticalAlign=top;align=center;html=1;fontSize=12;fontStyle=0;aspect=fixed;pointerEvents=1;shape=mxgraph.aws4.endpoints;" parent="1" vertex="1">
          <mxGeometry x="208" y="398" width="52" height="52" as="geometry" />
        </mxCell>
        <mxCell id="xHol1U0a_8AFffTDcJwT-115" value="" style="outlineConnect=0;dashed=0;verticalLabelPosition=bottom;verticalAlign=top;align=center;html=1;shape=mxgraph.aws3.s3;fillColor=#E05243;gradientColor=none;" parent="1" vertex="1">
          <mxGeometry x="1000" y="310" width="40" height="43" as="geometry" />
        </mxCell>
        <mxCell id="xHol1U0a_8AFffTDcJwT-116" value="" style="endArrow=classic;startArrow=classic;html=1;rounded=0;entryX=0.075;entryY=1.008;entryDx=0;entryDy=0;entryPerimeter=0;" parent="1" source="xHol1U0a_8AFffTDcJwT-114" target="xHol1U0a_8AFffTDcJwT-115" edge="1">
          <mxGeometry width="50" height="50" relative="1" as="geometry">
            <mxPoint x="290" y="370" as="sourcePoint" />
            <mxPoint x="340" y="320" as="targetPoint" />
            <Array as="points">
              <mxPoint x="234" y="353" />
            </Array>
          </mxGeometry>
        </mxCell>
        <mxCell id="xHol1U0a_8AFffTDcJwT-117" value="S3" style="text;html=1;align=center;verticalAlign=middle;resizable=0;points=[];autosize=1;strokeColor=none;fillColor=none;" parent="1" vertex="1">
          <mxGeometry x="1000" y="349.75" width="40" height="30" as="geometry" />
        </mxCell>
        <mxCell id="xHol1U0a_8AFffTDcJwT-118" value="VPC Endpoint" style="text;html=1;align=center;verticalAlign=middle;resizable=0;points=[];autosize=1;strokeColor=none;fillColor=none;" parent="1" vertex="1">
          <mxGeometry x="184" y="440" width="100" height="30" as="geometry" />
        </mxCell>
        <mxCell id="xHol1U0a_8AFffTDcJwT-119" value="" style="endArrow=classic;html=1;rounded=0;entryX=0.5;entryY=0;entryDx=0;entryDy=0;entryPerimeter=0;exitX=0.714;exitY=0.071;exitDx=0;exitDy=0;exitPerimeter=0;" parent="1" source="xHol1U0a_8AFffTDcJwT-9" target="xHol1U0a_8AFffTDcJwT-27" edge="1">
          <mxGeometry width="50" height="50" relative="1" as="geometry">
            <mxPoint x="-500" y="360" as="sourcePoint" />
            <mxPoint x="790" y="90" as="targetPoint" />
            <Array as="points">
              <mxPoint x="570" y="80" />
              <mxPoint x="730" y="80" />
            </Array>
          </mxGeometry>
        </mxCell>
        <mxCell id="xHol1U0a_8AFffTDcJwT-122" value="" style="endArrow=classic;html=1;rounded=0;entryX=0.5;entryY=0;entryDx=0;entryDy=0;entryPerimeter=0;exitX=0.25;exitY=0;exitDx=0;exitDy=0;" parent="1" source="xHol1U0a_8AFffTDcJwT-21" target="xHol1U0a_8AFffTDcJwT-32" edge="1">
          <mxGeometry width="50" height="50" relative="1" as="geometry">
            <mxPoint x="-100" y="440" as="sourcePoint" />
            <mxPoint x="700" y="470" as="targetPoint" />
            <Array as="points">
              <mxPoint x="568" y="500" />
              <mxPoint x="730" y="500" />
            </Array>
          </mxGeometry>
        </mxCell>
        <mxCell id="xHol1U0a_8AFffTDcJwT-127" value="Database&lt;div&gt;Server&lt;/div&gt;" style="text;html=1;align=center;verticalAlign=middle;resizable=0;points=[];autosize=1;strokeColor=none;fillColor=none;" parent="1" vertex="1">
          <mxGeometry x="-210" y="280" width="70" height="40" as="geometry" />
        </mxCell>
        <mxCell id="xHol1U0a_8AFffTDcJwT-128" value="Database&lt;div&gt;Server&lt;/div&gt;" style="text;html=1;align=center;verticalAlign=middle;resizable=0;points=[];autosize=1;strokeColor=none;fillColor=none;" parent="1" vertex="1">
          <mxGeometry x="-210" y="690" width="70" height="40" as="geometry" />
        </mxCell>
        <mxCell id="xHol1U0a_8AFffTDcJwT-129" value="Security group" style="fillColor=none;strokeColor=#DD3522;verticalAlign=top;fontStyle=0;fontColor=#DD3522;whiteSpace=wrap;html=1;" parent="1" vertex="1">
          <mxGeometry x="-210" y="220" width="89" height="90" as="geometry" />
        </mxCell>
        <mxCell id="xHol1U0a_8AFffTDcJwT-130" value="Security group" style="fillColor=none;strokeColor=#DD3522;verticalAlign=top;fontStyle=0;fontColor=#DD3522;whiteSpace=wrap;html=1;" parent="1" vertex="1">
          <mxGeometry x="-210" y="630" width="90" height="91" as="geometry" />
        </mxCell>
        <mxCell id="xHol1U0a_8AFffTDcJwT-131" value="Security group" style="fillColor=none;strokeColor=#DD3522;verticalAlign=top;fontStyle=0;fontColor=#DD3522;whiteSpace=wrap;html=1;" parent="1" vertex="1">
          <mxGeometry x="769.5" y="230" width="90" height="80" as="geometry" />
        </mxCell>
        <mxCell id="xHol1U0a_8AFffTDcJwT-132" value="Security group" style="fillColor=none;strokeColor=#DD3522;verticalAlign=top;fontStyle=0;fontColor=#DD3522;whiteSpace=wrap;html=1;" parent="1" vertex="1">
          <mxGeometry x="770" y="640" width="80" height="80" as="geometry" />
        </mxCell>
        <mxCell id="xHol1U0a_8AFffTDcJwT-143" value="Route Table" style="shape=table;startSize=50;container=1;collapsible=0;childLayout=tableLayout;fixedRows=1;rowLines=0;fontStyle=0;strokeColor=default;fontSize=16;" parent="1" vertex="1">
          <mxGeometry x="950" y="-10" width="210" height="110" as="geometry" />
        </mxCell>
        <mxCell id="xHol1U0a_8AFffTDcJwT-144" value="" style="shape=tableRow;horizontal=0;startSize=0;swimlaneHead=0;swimlaneBody=0;top=0;left=0;bottom=0;right=0;collapsible=0;dropTarget=0;fillColor=none;points=[[0,0.5],[1,0.5]];portConstraint=eastwest;strokeColor=inherit;fontSize=16;" parent="xHol1U0a_8AFffTDcJwT-143" vertex="1">
          <mxGeometry y="50" width="210" height="30" as="geometry" />
        </mxCell>
        <mxCell id="xHol1U0a_8AFffTDcJwT-145" value="Destination" style="shape=partialRectangle;html=1;whiteSpace=wrap;connectable=0;fillColor=none;top=0;left=0;bottom=0;right=0;overflow=hidden;pointerEvents=1;strokeColor=inherit;fontSize=16;" parent="xHol1U0a_8AFffTDcJwT-144" vertex="1">
          <mxGeometry width="90" height="30" as="geometry">
            <mxRectangle width="90" height="30" as="alternateBounds" />
          </mxGeometry>
        </mxCell>
        <mxCell id="xHol1U0a_8AFffTDcJwT-146" value="Target" style="shape=partialRectangle;html=1;whiteSpace=wrap;connectable=0;fillColor=none;top=0;left=0;bottom=0;right=0;align=left;spacingLeft=6;overflow=hidden;strokeColor=inherit;fontSize=16;" parent="xHol1U0a_8AFffTDcJwT-144" vertex="1">
          <mxGeometry x="90" width="120" height="30" as="geometry">
            <mxRectangle width="120" height="30" as="alternateBounds" />
          </mxGeometry>
        </mxCell>
        <mxCell id="xHol1U0a_8AFffTDcJwT-147" value="" style="shape=tableRow;horizontal=0;startSize=0;swimlaneHead=0;swimlaneBody=0;top=0;left=0;bottom=0;right=0;collapsible=0;dropTarget=0;fillColor=none;points=[[0,0.5],[1,0.5]];portConstraint=eastwest;strokeColor=inherit;fontSize=16;" parent="xHol1U0a_8AFffTDcJwT-143" vertex="1">
          <mxGeometry y="80" width="210" height="30" as="geometry" />
        </mxCell>
        <mxCell id="xHol1U0a_8AFffTDcJwT-148" value="0.0.0.0/0" style="shape=partialRectangle;html=1;whiteSpace=wrap;connectable=0;fillColor=none;top=0;left=0;bottom=0;right=0;overflow=hidden;strokeColor=inherit;fontSize=16;" parent="xHol1U0a_8AFffTDcJwT-147" vertex="1">
          <mxGeometry width="90" height="30" as="geometry">
            <mxRectangle width="90" height="30" as="alternateBounds" />
          </mxGeometry>
        </mxCell>
        <mxCell id="xHol1U0a_8AFffTDcJwT-149" value="IGW" style="shape=partialRectangle;html=1;whiteSpace=wrap;connectable=0;fillColor=none;top=0;left=0;bottom=0;right=0;align=left;spacingLeft=6;overflow=hidden;strokeColor=inherit;fontSize=16;" parent="xHol1U0a_8AFffTDcJwT-147" vertex="1">
          <mxGeometry x="90" width="120" height="30" as="geometry">
            <mxRectangle width="120" height="30" as="alternateBounds" />
          </mxGeometry>
        </mxCell>
        <mxCell id="xHol1U0a_8AFffTDcJwT-153" value="10.0.0.0/16" style="text;html=1;align=center;verticalAlign=middle;resizable=0;points=[];autosize=1;strokeColor=none;fillColor=none;" parent="1" vertex="1">
          <mxGeometry x="-180" y="20" width="80" height="30" as="geometry" />
        </mxCell>
        <mxCell id="xHol1U0a_8AFffTDcJwT-161" value="Route Table" style="shape=table;startSize=45;container=1;collapsible=0;childLayout=tableLayout;fixedRows=1;rowLines=0;fontStyle=0;strokeColor=default;fontSize=16;" parent="1" vertex="1">
          <mxGeometry x="950" y="525" width="210" height="110" as="geometry" />
        </mxCell>
        <mxCell id="xHol1U0a_8AFffTDcJwT-162" value="" style="shape=tableRow;horizontal=0;startSize=0;swimlaneHead=0;swimlaneBody=0;top=0;left=0;bottom=0;right=0;collapsible=0;dropTarget=0;fillColor=none;points=[[0,0.5],[1,0.5]];portConstraint=eastwest;strokeColor=inherit;fontSize=16;" parent="xHol1U0a_8AFffTDcJwT-161" vertex="1">
          <mxGeometry y="45" width="210" height="30" as="geometry" />
        </mxCell>
        <mxCell id="xHol1U0a_8AFffTDcJwT-163" value="Destination" style="shape=partialRectangle;html=1;whiteSpace=wrap;connectable=0;fillColor=none;top=0;left=0;bottom=0;right=0;overflow=hidden;pointerEvents=1;strokeColor=inherit;fontSize=16;" parent="xHol1U0a_8AFffTDcJwT-162" vertex="1">
          <mxGeometry width="90" height="30" as="geometry">
            <mxRectangle width="90" height="30" as="alternateBounds" />
          </mxGeometry>
        </mxCell>
        <mxCell id="xHol1U0a_8AFffTDcJwT-164" value="Target" style="shape=partialRectangle;html=1;whiteSpace=wrap;connectable=0;fillColor=none;top=0;left=0;bottom=0;right=0;align=left;spacingLeft=6;overflow=hidden;strokeColor=inherit;fontSize=16;" parent="xHol1U0a_8AFffTDcJwT-162" vertex="1">
          <mxGeometry x="90" width="120" height="30" as="geometry">
            <mxRectangle width="120" height="30" as="alternateBounds" />
          </mxGeometry>
        </mxCell>
        <mxCell id="xHol1U0a_8AFffTDcJwT-165" value="" style="shape=tableRow;horizontal=0;startSize=0;swimlaneHead=0;swimlaneBody=0;top=0;left=0;bottom=0;right=0;collapsible=0;dropTarget=0;fillColor=none;points=[[0,0.5],[1,0.5]];portConstraint=eastwest;strokeColor=inherit;fontSize=16;" parent="xHol1U0a_8AFffTDcJwT-161" vertex="1">
          <mxGeometry y="75" width="210" height="30" as="geometry" />
        </mxCell>
        <mxCell id="xHol1U0a_8AFffTDcJwT-166" value="0.0.0.0/0" style="shape=partialRectangle;html=1;whiteSpace=wrap;connectable=0;fillColor=none;top=0;left=0;bottom=0;right=0;overflow=hidden;strokeColor=inherit;fontSize=16;" parent="xHol1U0a_8AFffTDcJwT-165" vertex="1">
          <mxGeometry width="90" height="30" as="geometry">
            <mxRectangle width="90" height="30" as="alternateBounds" />
          </mxGeometry>
        </mxCell>
        <mxCell id="xHol1U0a_8AFffTDcJwT-167" value="NAT Gateway" style="shape=partialRectangle;html=1;whiteSpace=wrap;connectable=0;fillColor=none;top=0;left=0;bottom=0;right=0;align=left;spacingLeft=6;overflow=hidden;strokeColor=inherit;fontSize=16;" parent="xHol1U0a_8AFffTDcJwT-165" vertex="1">
          <mxGeometry x="90" width="120" height="30" as="geometry">
            <mxRectangle width="120" height="30" as="alternateBounds" />
          </mxGeometry>
        </mxCell>
        <mxCell id="xHol1U0a_8AFffTDcJwT-168" value="" style="outlineConnect=0;dashed=0;verticalLabelPosition=bottom;verticalAlign=top;align=center;html=1;shape=mxgraph.aws3.network_access_controllist;fillColor=#F58534;gradientColor=none;" parent="1" vertex="1">
          <mxGeometry x="759.5" y="76" width="40" height="42" as="geometry" />
        </mxCell>
        <mxCell id="xHol1U0a_8AFffTDcJwT-171" value="" style="endArrow=none;dashed=1;html=1;dashPattern=1 3;strokeWidth=2;rounded=0;" parent="1" edge="1">
          <mxGeometry width="50" height="50" relative="1" as="geometry">
            <mxPoint x="685" y="71" as="sourcePoint" />
            <mxPoint x="685" y="71" as="targetPoint" />
            <Array as="points">
              <mxPoint x="685" y="740" />
              <mxPoint x="875" y="740" />
              <mxPoint x="875" y="401" />
              <mxPoint x="875" y="71" />
            </Array>
          </mxGeometry>
        </mxCell>
        <mxCell id="xHol1U0a_8AFffTDcJwT-175" value="Network ACL" style="text;html=1;align=center;verticalAlign=middle;resizable=0;points=[];autosize=1;strokeColor=none;fillColor=none;" parent="1" vertex="1">
          <mxGeometry x="739" y="90" width="90" height="30" as="geometry" />
        </mxCell>
        <mxCell id="xHol1U0a_8AFffTDcJwT-177" value="Route Table" style="shape=table;startSize=50;container=1;collapsible=0;childLayout=tableLayout;fixedRows=1;rowLines=0;fontStyle=0;strokeColor=default;fontSize=16;" parent="1" vertex="1">
          <mxGeometry x="950" y="118" width="210" height="110" as="geometry" />
        </mxCell>
        <mxCell id="xHol1U0a_8AFffTDcJwT-178" value="" style="shape=tableRow;horizontal=0;startSize=0;swimlaneHead=0;swimlaneBody=0;top=0;left=0;bottom=0;right=0;collapsible=0;dropTarget=0;fillColor=none;points=[[0,0.5],[1,0.5]];portConstraint=eastwest;strokeColor=inherit;fontSize=16;" parent="xHol1U0a_8AFffTDcJwT-177" vertex="1">
          <mxGeometry y="50" width="210" height="30" as="geometry" />
        </mxCell>
        <mxCell id="xHol1U0a_8AFffTDcJwT-179" value="Destination" style="shape=partialRectangle;html=1;whiteSpace=wrap;connectable=0;fillColor=none;top=0;left=0;bottom=0;right=0;overflow=hidden;pointerEvents=1;strokeColor=inherit;fontSize=16;" parent="xHol1U0a_8AFffTDcJwT-178" vertex="1">
          <mxGeometry width="90" height="30" as="geometry">
            <mxRectangle width="90" height="30" as="alternateBounds" />
          </mxGeometry>
        </mxCell>
        <mxCell id="xHol1U0a_8AFffTDcJwT-180" value="Target" style="shape=partialRectangle;html=1;whiteSpace=wrap;connectable=0;fillColor=none;top=0;left=0;bottom=0;right=0;align=left;spacingLeft=6;overflow=hidden;strokeColor=inherit;fontSize=16;" parent="xHol1U0a_8AFffTDcJwT-178" vertex="1">
          <mxGeometry x="90" width="120" height="30" as="geometry">
            <mxRectangle width="120" height="30" as="alternateBounds" />
          </mxGeometry>
        </mxCell>
        <mxCell id="xHol1U0a_8AFffTDcJwT-181" value="" style="shape=tableRow;horizontal=0;startSize=0;swimlaneHead=0;swimlaneBody=0;top=0;left=0;bottom=0;right=0;collapsible=0;dropTarget=0;fillColor=none;points=[[0,0.5],[1,0.5]];portConstraint=eastwest;strokeColor=inherit;fontSize=16;" parent="xHol1U0a_8AFffTDcJwT-177" vertex="1">
          <mxGeometry y="80" width="210" height="30" as="geometry" />
        </mxCell>
        <mxCell id="xHol1U0a_8AFffTDcJwT-182" value="0.0.0.0/0" style="shape=partialRectangle;html=1;whiteSpace=wrap;connectable=0;fillColor=none;top=0;left=0;bottom=0;right=0;overflow=hidden;strokeColor=inherit;fontSize=16;" parent="xHol1U0a_8AFffTDcJwT-181" vertex="1">
          <mxGeometry width="90" height="30" as="geometry">
            <mxRectangle width="90" height="30" as="alternateBounds" />
          </mxGeometry>
        </mxCell>
        <mxCell id="xHol1U0a_8AFffTDcJwT-183" value="NAT Gateway" style="shape=partialRectangle;html=1;whiteSpace=wrap;connectable=0;fillColor=none;top=0;left=0;bottom=0;right=0;align=left;spacingLeft=6;overflow=hidden;strokeColor=inherit;fontSize=16;" parent="xHol1U0a_8AFffTDcJwT-181" vertex="1">
          <mxGeometry x="90" width="120" height="30" as="geometry">
            <mxRectangle width="120" height="30" as="alternateBounds" />
          </mxGeometry>
        </mxCell>
        <mxCell id="xHol1U0a_8AFffTDcJwT-184" value="" style="endArrow=classic;html=1;rounded=0;entryX=-0.005;entryY=-0.033;entryDx=0;entryDy=0;entryPerimeter=0;" parent="1" target="xHol1U0a_8AFffTDcJwT-178" edge="1">
          <mxGeometry width="50" height="50" relative="1" as="geometry">
            <mxPoint x="750" y="165" as="sourcePoint" />
            <mxPoint x="870" y="-50" as="targetPoint" />
            <Array as="points" />
          </mxGeometry>
        </mxCell>
        <mxCell id="xHol1U0a_8AFffTDcJwT-185" value="" style="endArrow=classic;html=1;rounded=0;entryX=0;entryY=0.5;entryDx=0;entryDy=0;exitX=1;exitY=0.5;exitDx=0;exitDy=0;exitPerimeter=0;" parent="1" source="xHol1U0a_8AFffTDcJwT-32" target="xHol1U0a_8AFffTDcJwT-161" edge="1">
          <mxGeometry width="50" height="50" relative="1" as="geometry">
            <mxPoint x="770.6499999999996" y="575.2999999999997" as="sourcePoint" />
            <mxPoint x="920" y="690" as="targetPoint" />
          </mxGeometry>
        </mxCell>
        <mxCell id="xHol1U0a_8AFffTDcJwT-186" value="" style="endArrow=classic;html=1;rounded=0;entryX=0;entryY=0.5;entryDx=0;entryDy=0;exitX=0.669;exitY=0.201;exitDx=0;exitDy=0;exitPerimeter=0;" parent="1" source="xHol1U0a_8AFffTDcJwT-34" target="xHol1U0a_8AFffTDcJwT-144" edge="1">
          <mxGeometry width="50" height="50" relative="1" as="geometry">
            <mxPoint x="930" y="47.035398230088504" as="sourcePoint" />
            <mxPoint x="960" y="300" as="targetPoint" />
            <Array as="points">
              <mxPoint x="900" y="55" />
            </Array>
          </mxGeometry>
        </mxCell>
        <mxCell id="xHol1U0a_8AFffTDcJwT-187" value="" style="sketch=0;aspect=fixed;pointerEvents=1;shadow=0;dashed=0;html=1;strokeColor=none;labelPosition=center;verticalLabelPosition=bottom;verticalAlign=top;align=center;fillColor=#00188D;shape=mxgraph.mscae.enterprise.application_server" parent="1" vertex="1">
          <mxGeometry x="540" y="230" width="43" height="50" as="geometry" />
        </mxCell>
        <mxCell id="xHol1U0a_8AFffTDcJwT-188" value="" style="sketch=0;aspect=fixed;pointerEvents=1;shadow=0;dashed=0;html=1;strokeColor=none;labelPosition=center;verticalLabelPosition=bottom;verticalAlign=top;align=center;fillColor=#00188D;shape=mxgraph.mscae.enterprise.application_server" parent="1" vertex="1">
          <mxGeometry x="530" y="640" width="43" height="50" as="geometry" />
        </mxCell>
        <mxCell id="xHol1U0a_8AFffTDcJwT-189" value="Application&lt;div&gt;Server&lt;/div&gt;" style="text;html=1;align=center;verticalAlign=middle;resizable=0;points=[];autosize=1;strokeColor=none;fillColor=none;" parent="1" vertex="1">
          <mxGeometry x="521.5" y="270" width="80" height="40" as="geometry" />
        </mxCell>
        <mxCell id="xHol1U0a_8AFffTDcJwT-190" value="Application&lt;div&gt;Server&lt;/div&gt;" style="text;html=1;align=center;verticalAlign=middle;resizable=0;points=[];autosize=1;strokeColor=none;fillColor=none;" parent="1" vertex="1">
          <mxGeometry x="521.5" y="690" width="80" height="40" as="geometry" />
        </mxCell>
        <mxCell id="xHol1U0a_8AFffTDcJwT-191" value="Security group" style="fillColor=none;strokeColor=#DD3522;verticalAlign=top;fontStyle=0;fontColor=#DD3522;whiteSpace=wrap;html=1;" parent="1" vertex="1">
          <mxGeometry x="530" y="210" width="87" height="100" as="geometry" />
        </mxCell>
        <mxCell id="xHol1U0a_8AFffTDcJwT-192" value="Security group" style="fillColor=none;strokeColor=#DD3522;verticalAlign=top;fontStyle=0;fontColor=#DD3522;whiteSpace=wrap;html=1;" parent="1" vertex="1">
          <mxGeometry x="528.5" y="620" width="88.5" height="100" as="geometry" />
        </mxCell>
        <mxCell id="xHol1U0a_8AFffTDcJwT-193" value="10.0.20.0/26 (62 hosts)&lt;div&gt;for Java App DB&lt;br&gt;&lt;/div&gt;" style="text;html=1;align=center;verticalAlign=middle;resizable=0;points=[];autosize=1;strokeColor=none;fillColor=none;" parent="1" vertex="1">
          <mxGeometry x="-35" y="125" width="150" height="40" as="geometry" />
        </mxCell>
        <mxCell id="xHol1U0a_8AFffTDcJwT-194" value="10.0.21.0/26 (62 hosts)&lt;div&gt;for Java App DB&lt;/div&gt;" style="text;html=1;align=center;verticalAlign=middle;resizable=0;points=[];autosize=1;strokeColor=none;fillColor=none;" parent="1" vertex="1">
          <mxGeometry x="-35" y="545" width="150" height="40" as="geometry" />
        </mxCell>
        <mxCell id="xHol1U0a_8AFffTDcJwT-195" value="10.0.8.0/22 (1022 hosts)" style="text;html=1;align=center;verticalAlign=middle;resizable=0;points=[];autosize=1;strokeColor=none;fillColor=none;" parent="1" vertex="1">
          <mxGeometry x="-215" y="130" width="150" height="30" as="geometry" />
        </mxCell>
        <mxCell id="xHol1U0a_8AFffTDcJwT-196" value="10.0.12.0/22 (1022 hosts)" style="text;html=1;align=center;verticalAlign=middle;resizable=0;points=[];autosize=1;strokeColor=none;fillColor=none;" parent="1" vertex="1">
          <mxGeometry x="-220" y="550" width="160" height="30" as="geometry" />
        </mxCell>
        <mxCell id="xHol1U0a_8AFffTDcJwT-197" value="10.0.2.0/23&amp;nbsp; (510 hosts)" style="text;html=1;align=center;verticalAlign=middle;resizable=0;points=[];autosize=1;strokeColor=none;fillColor=none;" parent="1" vertex="1">
          <mxGeometry x="710" y="120" width="150" height="30" as="geometry" />
        </mxCell>
        <mxCell id="xHol1U0a_8AFffTDcJwT-198" value="10.0.4.0/23 (510 hosts)" style="text;html=1;align=center;verticalAlign=middle;resizable=0;points=[];autosize=1;strokeColor=none;fillColor=none;" parent="1" vertex="1">
          <mxGeometry x="720" y="540" width="150" height="30" as="geometry" />
        </mxCell>
        <mxCell id="xHol1U0a_8AFffTDcJwT-199" value="&lt;div&gt;10.0.16.0/24 (254 hosts)&lt;/div&gt;&lt;div&gt;for Oracle DB&lt;/div&gt;" style="text;html=1;align=center;verticalAlign=middle;resizable=0;points=[];autosize=1;strokeColor=none;fillColor=none;" parent="1" vertex="1">
          <mxGeometry x="150" y="130" width="150" height="40" as="geometry" />
        </mxCell>
        <mxCell id="xHol1U0a_8AFffTDcJwT-200" value="&lt;div&gt;10.0.17.0/24 (254 hosts)&lt;/div&gt;&lt;div&gt;for Oracle DB&lt;/div&gt;" style="text;html=1;align=center;verticalAlign=middle;resizable=0;points=[];autosize=1;strokeColor=none;fillColor=none;" parent="1" vertex="1">
          <mxGeometry x="150" y="550" width="150" height="40" as="geometry" />
        </mxCell>
        <mxCell id="xHol1U0a_8AFffTDcJwT-201" value="&lt;div&gt;10.0.18.0/26 (62 hosts)&lt;/div&gt;&lt;div&gt;for Java App DB&lt;/div&gt;" style="text;html=1;align=center;verticalAlign=middle;resizable=0;points=[];autosize=1;strokeColor=none;fillColor=none;" parent="1" vertex="1">
          <mxGeometry x="335" y="130" width="150" height="40" as="geometry" />
        </mxCell>
        <mxCell id="xHol1U0a_8AFffTDcJwT-202" value="&lt;div&gt;10.0.19.0/26 (62 hosts)&lt;/div&gt;&lt;div&gt;for Java App DB&lt;/div&gt;" style="text;html=1;align=center;verticalAlign=middle;resizable=0;points=[];autosize=1;strokeColor=none;fillColor=none;" parent="1" vertex="1">
          <mxGeometry x="335" y="550" width="150" height="40" as="geometry" />
        </mxCell>
        <mxCell id="xHol1U0a_8AFffTDcJwT-203" value="&lt;div&gt;10.0.0.0/24 (254 hosts)&lt;/div&gt;&lt;div&gt;Application Server&lt;/div&gt;" style="text;html=1;align=center;verticalAlign=middle;resizable=0;points=[];autosize=1;strokeColor=none;fillColor=none;" parent="1" vertex="1">
          <mxGeometry x="525" y="130" width="150" height="40" as="geometry" />
        </mxCell>
        <mxCell id="xHol1U0a_8AFffTDcJwT-204" value="&lt;div&gt;10.0.1.0/24 (254 hosts)&lt;/div&gt;&lt;div&gt;Application Server&lt;/div&gt;" style="text;html=1;align=center;verticalAlign=middle;resizable=0;points=[];autosize=1;strokeColor=none;fillColor=none;" parent="1" vertex="1">
          <mxGeometry x="525" y="550" width="150" height="40" as="geometry" />
        </mxCell>
        <mxCell id="xHol1U0a_8AFffTDcJwT-205" value="" style="shape=actor;whiteSpace=wrap;html=1;" parent="1" vertex="1">
          <mxGeometry x="1430" y="380" width="40" height="60" as="geometry" />
        </mxCell>
        <mxCell id="xHol1U0a_8AFffTDcJwT-206" value="" style="shape=actor;whiteSpace=wrap;html=1;" parent="1" vertex="1">
          <mxGeometry x="1480" y="380" width="40" height="60" as="geometry" />
        </mxCell>
        <mxCell id="xHol1U0a_8AFffTDcJwT-207" value="" style="shape=actor;whiteSpace=wrap;html=1;" parent="1" vertex="1">
          <mxGeometry x="1530" y="380" width="40" height="60" as="geometry" />
        </mxCell>
        <mxCell id="xHol1U0a_8AFffTDcJwT-208" value="" style="endArrow=classic;startArrow=classic;html=1;rounded=0;exitX=0.875;exitY=0.5;exitDx=0;exitDy=0;exitPerimeter=0;" parent="1" source="xHol1U0a_8AFffTDcJwT-110" edge="1">
          <mxGeometry width="50" height="50" relative="1" as="geometry">
            <mxPoint x="1340" y="320" as="sourcePoint" />
            <mxPoint x="1440" y="412" as="targetPoint" />
          </mxGeometry>
        </mxCell>
        <mxCell id="xHol1U0a_8AFffTDcJwT-209" value="users" style="text;html=1;align=center;verticalAlign=middle;resizable=0;points=[];autosize=1;strokeColor=none;fillColor=none;" parent="1" vertex="1">
          <mxGeometry x="1475" y="440" width="50" height="30" as="geometry" />
        </mxCell>
        <mxCell id="qcOihhKjrK69Shuv9pSP-3" value="" style="endArrow=classic;startArrow=classic;html=1;rounded=0;entryX=0.849;entryY=0.982;entryDx=0;entryDy=0;entryPerimeter=0;" parent="1" source="qcOihhKjrK69Shuv9pSP-1" target="xHol1U0a_8AFffTDcJwT-191" edge="1">
          <mxGeometry width="50" height="50" relative="1" as="geometry">
            <mxPoint x="430" y="430" as="sourcePoint" />
            <mxPoint x="480" y="380" as="targetPoint" />
          </mxGeometry>
        </mxCell>
        <mxCell id="qcOihhKjrK69Shuv9pSP-4" value="" style="endArrow=classic;startArrow=classic;html=1;rounded=0;exitX=0.5;exitY=0;exitDx=0;exitDy=0;" parent="1" source="qcOihhKjrK69Shuv9pSP-1" edge="1">
          <mxGeometry width="50" height="50" relative="1" as="geometry">
            <mxPoint x="430" y="920" as="sourcePoint" />
            <mxPoint x="597" y="430" as="targetPoint" />
          </mxGeometry>
        </mxCell>
        <mxCell id="qcOihhKjrK69Shuv9pSP-5" value="" style="endArrow=classic;startArrow=classic;html=1;rounded=0;exitX=0.5;exitY=0;exitDx=0;exitDy=0;" parent="1" source="xHol1U0a_8AFffTDcJwT-21" edge="1">
          <mxGeometry width="50" height="50" relative="1" as="geometry">
            <mxPoint x="605" y="530" as="sourcePoint" />
            <mxPoint x="605" y="435" as="targetPoint" />
          </mxGeometry>
        </mxCell>
        <mxCell id="qcOihhKjrK69Shuv9pSP-2" value="Autoscaling" style="text;html=1;align=center;verticalAlign=middle;resizable=0;points=[];autosize=1;strokeColor=none;fillColor=none;" parent="1" vertex="1">
          <mxGeometry x="560" y="440" width="90" height="30" as="geometry" />
        </mxCell>
        <mxCell id="qcOihhKjrK69Shuv9pSP-6" value="" style="endArrow=classic;startArrow=classic;html=1;rounded=0;entryX=0;entryY=0.5;entryDx=0;entryDy=0;entryPerimeter=0;" parent="1" source="qcOihhKjrK69Shuv9pSP-1" target="xHol1U0a_8AFffTDcJwT-33" edge="1">
          <mxGeometry width="50" height="50" relative="1" as="geometry">
            <mxPoint x="570" y="900" as="sourcePoint" />
            <mxPoint x="620" y="850" as="targetPoint" />
          </mxGeometry>
        </mxCell>
        <mxCell id="qcOihhKjrK69Shuv9pSP-7" value="" style="endArrow=classic;startArrow=classic;html=1;rounded=0;exitX=0.5;exitY=0;exitDx=0;exitDy=0;" parent="1" source="qcOihhKjrK69Shuv9pSP-2" target="qcOihhKjrK69Shuv9pSP-1" edge="1">
          <mxGeometry width="50" height="50" relative="1" as="geometry">
            <mxPoint x="605" y="420" as="sourcePoint" />
            <mxPoint x="597" y="430" as="targetPoint" />
          </mxGeometry>
        </mxCell>
        <mxCell id="qcOihhKjrK69Shuv9pSP-1" value="" style="sketch=0;outlineConnect=0;fontColor=#232F3E;gradientColor=none;fillColor=#ED7100;strokeColor=none;dashed=0;verticalLabelPosition=bottom;verticalAlign=top;align=center;html=1;fontSize=12;fontStyle=0;aspect=fixed;pointerEvents=1;shape=mxgraph.aws4.auto_scaling2;" parent="1" vertex="1">
          <mxGeometry x="581" y="388" width="48" height="48" as="geometry" />
        </mxCell>
        <mxCell id="qcOihhKjrK69Shuv9pSP-8" value="" style="rounded=1;arcSize=10;dashed=1;strokeColor=#F59D56;fillColor=none;gradientColor=none;dashPattern=8 4;strokeWidth=2;" parent="1" vertex="1">
          <mxGeometry x="-264" width="1194" height="370" as="geometry" />
        </mxCell>
        <mxCell id="qcOihhKjrK69Shuv9pSP-12" value="" style="image;aspect=fixed;perimeter=ellipsePerimeter;html=1;align=center;shadow=0;dashed=0;spacingTop=3;image=img/lib/active_directory/generic_server.svg;" parent="1" vertex="1">
          <mxGeometry x="-80" y="220" width="28.000000000000004" height="50" as="geometry" />
        </mxCell>
        <mxCell id="qcOihhKjrK69Shuv9pSP-13" value="runner&lt;div&gt;server&lt;/div&gt;" style="text;html=1;align=center;verticalAlign=middle;resizable=0;points=[];autosize=1;strokeColor=none;fillColor=none;" parent="1" vertex="1">
          <mxGeometry x="-96" y="260" width="60" height="40" as="geometry" />
        </mxCell>
        <mxCell id="qcOihhKjrK69Shuv9pSP-14" value="" style="image;aspect=fixed;perimeter=ellipsePerimeter;html=1;align=center;shadow=0;dashed=0;spacingTop=3;image=img/lib/active_directory/generic_server.svg;" parent="1" vertex="1">
          <mxGeometry x="-80" y="635" width="28.000000000000004" height="50" as="geometry" />
        </mxCell>
        <mxCell id="qcOihhKjrK69Shuv9pSP-15" value="runner&lt;div&gt;server&lt;/div&gt;" style="text;html=1;align=center;verticalAlign=middle;resizable=0;points=[];autosize=1;strokeColor=none;fillColor=none;" parent="1" vertex="1">
          <mxGeometry x="-100" y="680" width="60" height="40" as="geometry" />
        </mxCell>
        <mxCell id="qcOihhKjrK69Shuv9pSP-17" value="" style="endArrow=classic;html=1;rounded=0;" parent="1" target="qcOihhKjrK69Shuv9pSP-12" edge="1">
          <mxGeometry width="50" height="50" relative="1" as="geometry">
            <mxPoint x="800" y="310" as="sourcePoint" />
            <mxPoint x="1350" y="180" as="targetPoint" />
            <Array as="points">
              <mxPoint x="800" y="330" />
              <mxPoint x="-66" y="330" />
            </Array>
          </mxGeometry>
        </mxCell>
        <mxCell id="qcOihhKjrK69Shuv9pSP-18" value="" style="endArrow=classic;html=1;rounded=0;exitX=0.5;exitY=0;exitDx=0;exitDy=0;entryX=0;entryY=0;entryDx=0;entryDy=0;" parent="1" source="xHol1U0a_8AFffTDcJwT-132" target="qcOihhKjrK69Shuv9pSP-14" edge="1">
          <mxGeometry width="50" height="50" relative="1" as="geometry">
            <mxPoint x="500" y="410" as="sourcePoint" />
            <mxPoint x="550" y="360" as="targetPoint" />
            <Array as="points">
              <mxPoint x="810" y="490" />
              <mxPoint x="-76" y="490" />
            </Array>
          </mxGeometry>
        </mxCell>
        <mxCell id="qcOihhKjrK69Shuv9pSP-23" value="AWS Cloud" style="sketch=0;outlineConnect=0;gradientColor=none;html=1;whiteSpace=wrap;fontSize=12;fontStyle=0;shape=mxgraph.aws4.group;grIcon=mxgraph.aws4.group_aws_cloud;strokeColor=#AAB7B8;fillColor=none;verticalAlign=top;align=left;spacingLeft=30;fontColor=#AAB7B8;dashed=0;" parent="1" vertex="1">
          <mxGeometry x="-359" y="-89" width="1549" height="949" as="geometry" />
        </mxCell>
      </root>
    </mxGraphModel>
  </diagram>
</mxfile>
